<svg xmlns="http://www.w3.org/2000/svg" xmlns:xlink="http://www.w3.org/1999/xlink" id="exportSvg" width="1000" height="497"><defs/><rect width="1000" height="497" transform="translate(0, 0)" fill="rgb(255, 255, 255)" style="fill: rgb(255, 255, 255);"/><g><g id="__svelte-dw-svg"><g id="container-svg container-body-svg datawrapper-gJjxt-8pdpge-svg"><g id="container-svg container-bodyTop-svg datawrapper-gJjxt-lmtz6e-svg"><g id="container-svg container-bodyCenter-svg datawrapper-gJjxt-1fgvipr-svg"><g id="container-svg container-header-svg datawrapper-gJjxt-xp3kt5-svg"><text transform="translate(0, 0)"><tspan fill="rgb(0,0,0)" x="0" y="22" style="font-family: Roboto; font-weight: 700; font-stretch: 100%; font-size: 22px;">T2108 - % of Stocks Above 40 Day MA (NYSE)</tspan></text></g><g id="chart-svg"><g id="svg-main-svg" transform="translate(0, 35)"><g id="group-svg" transform="translate(34.63477, 6)"><g id="x-grid-svg"/><g id="y-grid-svg"/><g id="area-fills-svg"/><g id="lines-svg"><g id="t2108_ratio-svg"><g id="t2108_ratio-svg"><path d="M10,116.13L10.583,120.085L12.333,125.438L12.916,135.775L13.499,124.014L14.082,114.977L14.665,114.415L16.415,140.801L16.998,182.304L17.581,142.724L18.164,149.578L18.748,119.385L20.497,98.753L21.08,103.181L21.664,94.168L22.247,101.497L22.83,130.579L24.579,109.161L25.163,141.057L25.746,146.339L26.329,143.189L26.912,123.508L28.662,149.497L29.245,165.774L29.828,223.012L30.411,181.401L30.994,144.259L32.744,138.185L33.327,149.978L33.91,171.735L34.493,149.988L35.077,137.907L36.826,129.85L37.409,166.891L37.992,130.481L38.576,108.767L39.159,106.627L41.491,82.85L42.075,94.246L42.658,103.357L43.241,94.362L44.991,79.509L45.574,69.299L46.157,84.371L46.74,90.339L47.323,75.863L49.073,92.675L49.656,100.971L50.239,113.179L50.822,145.82L51.405,195.901L53.155,162.559L53.738,159.153L54.321,154.803L54.904,127.274L55.488,118.92L57.237,141.561L57.82,155.601L58.404,156.326L58.987,141.703L59.57,157.122L61.903,188.813L62.486,203.768L63.069,229.927L63.652,185.389L65.402,175.289L65.985,216.716L66.568,240.548L67.151,251.404L67.734,268.738L69.484,295.373L70.067,251.99L70.65,224.467L71.233,243.581L71.817,227.118L73.566,222.86L74.149,236.752L74.732,218.086L75.316,193.768L75.899,205.256L77.648,209.037L78.231,198.969L78.815,216.823L79.398,183.907L79.981,163.988L81.731,171.303L82.314,157.761L82.897,143.141L83.48,148.968L84.063,159.175L85.813,176.54L86.396,201.404L86.979,220.433L87.562,238.625L88.145,207.92L89.895,175.589L90.478,157.49L91.061,143.074L91.645,162.632L92.228,105.163L93.977,117.029L94.56,106.859L95.144,97.637L95.727,83.17L96.31,97.651L98.643,126.367L99.226,153.631L99.809,159.133L100.392,185.58L102.142,172.408L102.725,210.755L103.308,186.987L103.891,188.117L104.474,190.098L106.224,256.766L106.807,246.119L107.39,213.959L107.973,169.464L108.557,172.368L110.306,147.801L110.889,195.421L111.472,198.909L112.056,219.873L112.639,186.885L114.388,209.946L114.972,198.969L115.555,202.965L116.138,175.302L116.721,181.491L118.471,190.672L119.054,178.238L119.637,164.988L120.22,135.829L120.803,140.309L122.553,146.863L123.136,133.539L123.719,117.639L124.302,115.642L124.885,122.851L126.635,107.902L127.218,121.669L127.801,157.271L128.385,119.973L128.968,123.641L130.742,73.461L131.325,77.689L131.908,55.934L132.491,67.759L133.074,54.123L134.824,47.921L135.407,57.909L135.99,83.365L136.573,76.406L137.156,76.2L138.906,86.43L139.489,98.184L140.072,119.495L140.656,141.921L141.239,159.864L142.988,162.681L143.571,169.062L144.155,165.761L145.321,236.001L147.07,238.312L147.654,279.9L148.237,300.537L148.82,269.514L149.403,290.027L151.153,261.348L151.736,232.713L152.319,220.476L152.902,255.244L153.485,247.96L155.235,272.385L155.818,286.725L156.401,265.32L156.984,274.793L157.568,281.269L159.317,302.124L159.9,262.527L160.483,243.832L161.067,220.74L163.399,195.892L163.983,200.241L164.566,195.814L165.149,195.02L165.732,188.011L167.482,156.583L168.065,143.261L168.648,189.522L169.231,180.582L169.814,193.391L171.564,203.982L172.147,179.867L172.73,184.015L173.313,185.394L173.897,190.195L176.229,223.096L176.812,236.695L177.396,267.051L177.979,290.016L179.728,279.718L180.311,283.572L180.895,297.53L181.478,310.554L182.061,296.905L183.81,268.636L184.394,251.047L184.977,256.647L185.56,279.793L186.143,269.327L187.893,258.595L188.476,227.969L189.059,198.826L189.642,220.597L190.225,239.561L191.975,252.351L192.558,201.381L193.141,194.1L193.724,234.106L194.308,245.112L196.64,271.467L197.224,290.795L197.807,270.869L198.39,222.483L200.139,215.555L200.723,244.225L201.306,200.565L201.889,211.344L202.472,228.947L204.222,253.453L204.805,251.641L205.388,215.586L205.971,215.252L206.554,231.823L208.304,251.795L208.887,234.854L209.47,180.086L210.053,141.394L210.637,111.113L212.386,132.224L212.969,105.931L213.552,145.553L214.136,124.191L214.719,123.212L216.444,130.538L217.027,77.479L217.61,115.022L218.194,136.527L218.777,124.889L220.526,112.869L221.109,153.023L221.693,183.975L222.276,190.183L222.859,198.036L224.608,214.077L225.192,216.956L225.775,184.607L226.358,197.417L228.691,214.906L229.274,176.898L229.857,167.053L230.44,207.609L231.023,257.181L232.773,257.11L233.356,302.89L233.939,299.686L234.522,269.804L235.106,309.205L236.855,306.241L237.438,292.448L238.021,246.012L238.605,296.93L239.188,308.965L240.937,335.287L241.521,343.267L242.104,348.109L242.687,346.215L243.27,324.742L245.02,321.323L245.603,285.358L246.186,320.952L246.769,319.631L247.352,318.113L249.102,301.212L249.685,306.185L250.268,281.875L250.851,242.181L251.434,189.571L253.767,199.633L254.35,210.583L254.934,158.29L255.517,178.524L257.266,168.892L257.849,143.915L258.433,166.205L259.016,212.5L259.599,262.584L261.348,327.274L261.932,325.94L262.515,307.365L263.098,337.5L263.681,322.499L266.014,301.715L266.597,296.774L267.18,271.05L267.763,231.636L269.513,228.456L270.096,254.965L270.679,265.708L271.262,265.451L271.846,236.227L274.178,227.605L274.761,231.911L275.345,202.363L275.928,203.876L277.677,228.298L278.261,240.763L278.844,242.74L279.427,256.207L280.01,222.659L281.76,228.226L282.343,153.983L282.926,117.836L283.509,107.085L284.092,133.2L285.842,123.27L286.425,145.003L287.008,92.647L287.591,75.157L288.175,66.031L289.924,61.758L290.507,57.082L291.09,41.001L291.674,40.838L292.257,35.774L294.006,19.869L294.589,39.634L295.173,11.983L295.756,9.953L296.339,0L298.088,2.579L298.672,7.624L299.255,27.185L299.838,23.887L300.421,57.77L302.171,101.437L302.754,104.431L303.337,92.452L303.92,68.495L304.503,148.308L306.253,173.01L306.836,206.586L307.419,224.946L308.002,243.786L308.586,256.691L310.918,271.313L311.502,234.661L312.085,222.738L312.668,185.576L314.417,163.278L315.001,253.285L315.584,251.102L316.167,260.948L316.75,284.509L318.5,281.205L319.083,301.367L319.666,316.014L320.249,342.065L320.832,357.57L322.582,360.231L323.165,359.891L323.748,339.947L324.331,351.188L324.915,350.545L326.664,330.219L327.247,282.303L327.83,284.342L328.414,282.399L328.997,315.543L330.746,319.949L331.329,319.312L331.913,315.613L332.496,277.83L333.079,303.756L334.829,262.278L335.412,234.766L335.995,255.894L336.578,266.183L337.161,223.257L338.911,211.235L339.494,153.874L340.077,148.92L340.66,146.286L341.243,116.599L343.017,115.822L343.6,106.569L344.184,154.912L344.767,165.396L345.35,139.095L347.1,125.837L347.683,122.889L348.266,156.176L348.849,75.913L349.432,58.06L351.182,70.294L351.765,58.524L352.348,76.295L352.931,88.336L353.514,83.474L355.264,98.009L355.847,84.482L356.43,81.258L357.597,75.024L359.346,108.907L359.929,104.968L360.513,71.035L361.096,70.737L361.679,64.394L363.428,109.866L364.012,137.653L364.595,152.56L365.178,147.816L365.761,164.594L367.511,149.646L368.094,143.366L368.677,159.695L369.26,214.548L369.843,233.02L371.593,266.929L372.176,262.018L372.759,231.466L373.342,255.245L373.926,247.105L376.258,254.901L376.841,280.242L377.425,234.615L378.008,239.201L380.34,239.092L380.924,202.46L381.507,220.314L382.09,162.244L383.84,152.4L384.423,120.321L385.006,86.706L385.589,52.73L386.172,42.533L388.505,44.369L389.088,82.097L389.671,104.191L390.254,64.771L392.004,48.032L392.587,48.393L393.17,43.473L393.754,39.77L394.337,34.211L396.086,47.568L396.669,17.563L397.253,10.581L397.836,0.746L398.419,9.853L400.168,17.7L400.752,14.069L401.335,35.179L401.918,67.825L402.501,62.591L404.251,49.925L404.834,63.985L405.417,54.355L406,77.125L406.583,75.048L408.916,148.228L409.499,151.003L410.082,145.577L410.666,181.792L412.415,183.162L412.998,188.988L413.581,199.243L414.165,192.453L414.748,171.91L416.497,197.82L417.081,226.354L417.664,227.821L418.247,272.239L418.83,310.88L420.58,321.848L421.163,299.535L421.746,317.278L422.329,299.371L422.912,315.474L424.662,307.438L425.245,295.005L425.828,313.012L426.411,311.722L426.994,303.899L428.72,297.183L429.303,293.951L429.886,275.057L430.469,266.928L431.052,227.709L432.802,221.393L433.385,243.604L433.968,255.741L434.551,248.193L436.884,230.247L437.467,208.335L438.051,216.445L438.634,190.542L439.217,198.494L440.966,175.741L441.55,176.137L442.133,175.985L442.716,191.001L443.299,185.978L445.049,189.327L445.632,235.204L446.215,248.582L446.798,216.743L447.381,186.761L449.131,183.467L449.714,217.434L450.297,218.447L450.88,224.602L451.464,179.604L453.213,181.625L453.796,185.963L454.379,176.794L454.963,194.033L455.546,198.878L457.295,184.032L457.878,212.626L458.462,177.797L459.045,171.436L459.628,177.836L461.378,161.19L461.961,164.64L462.544,193.085L463.127,209.636L463.71,196.455L466.043,197.194L466.626,212.32L467.209,192.436L467.792,122.891L469.542,142.219L470.125,102.317L470.708,78.407L471.292,81.597L471.875,96.433L473.624,89.259L474.207,71.905L474.791,85.017L475.374,71.062L475.957,74.605L478.29,91.243L478.873,96.71L479.456,114.385L480.039,146.637L481.789,142.602L482.372,122.14L482.955,122.58L483.538,99.646L484.121,93.584L485.871,77.632L487.037,103.961L487.62,142.026L488.204,118.149L489.953,100.997L490.536,81.291L491.119,65.465L491.703,53.847L492.286,72.989L494.035,66.491L494.619,54.948L495.202,50.649L495.785,60.726L496.368,65.488L498.118,66.869L498.701,76.851L499.284,70.238L499.867,103.314L500.45,85.222L502.2,69.541L502.783,85.384L503.366,116.399L503.949,131.659L504.532,140.222L506.282,137.998L506.865,152.689L507.448,164.099L508.032,171.002L508.615,167.893L510.364,177.34L510.947,206.127L511.531,227.297L512.114,248.075L512.697,246.249L514.446,252.433L515.03,260.765L515.613,245.974L516.196,266.82L516.779,261.144L518.529,246.554L519.112,222.043L519.695,215.458L520.278,221.759L520.861,204.126L523.194,244.383L523.777,252.919L524.36,261.895L524.944,259.823L526.693,254.944L527.276,257.091L527.859,268.365L528.443,237.806L529.026,246.241L530.775,254.989L531.359,260.952L531.942,267.479L532.525,291.132L533.108,292.018L534.858,288.781L535.441,306.589L536.024,293.624L536.607,283.559L537.19,285.606L538.94,302.716L539.523,321.363L540.106,313.041L540.689,307.073L541.273,292.068L543.022,278.855L543.605,256.577L544.188,253.862L544.772,277.544L545.355,287.649L547.104,259.148L547.687,238.102L548.271,273.623L548.854,293.411L549.437,306.95L551.186,317.206L551.77,304.533L552.353,312.899L552.936,310.472L553.519,319.758L555.293,302.208L555.876,286.51L556.459,274.914L557.043,215.707L557.626,159.71L559.375,179.308L559.958,178.271L560.542,189.834L561.125,213.061L561.708,194.76L563.457,192.072L564.041,115.864L564.624,103.427L565.207,122.423L565.79,105.309L567.54,95.531L568.123,109.486L568.706,98.895L569.872,81.528L571.622,92.621L572.205,92.175L572.788,85.736L573.371,81.856L573.955,49.483L575.704,41.392L576.287,57.757L576.87,60.177L577.454,52.38L578.037,46.999L579.786,55.642L580.37,65.021L580.953,32.664L581.536,20.388L582.119,30.806L583.869,30.85L584.452,17.195L585.035,31.575L585.618,20.089L586.201,13.114L588.534,7.896L589.117,6.374L589.7,7.532L590.284,16.808L592.616,20.851L593.199,52.19L593.783,59.595L594.366,68.467L596.115,45.987L596.698,71.264L597.282,76.306L597.865,99.449L598.448,105.857L600.781,145.689L601.364,173.184L601.947,162.587L602.53,145.901L604.28,115.656L604.863,125.426L605.446,142.795L606.029,125.731L606.612,127.937L608.362,104.113L608.945,126.883L609.528,182.89L610.111,161.157L610.695,179.135L612.444,208.315L613.027,193.077L613.611,198.223L614.194,183.754L614.777,165.081L616.526,135.892L617.11,205.397L617.693,166.905L618.276,128.992L618.859,144.934L621.192,164.367L621.775,168.322L622.358,166.894L622.941,157.649L624.691,152.45L625.274,140.023L625.857,151.347L626.44,140.374L627.024,132.197L628.773,136.256L629.356,150.606L629.939,138.472L630.523,125.298L631.106,121.883L632.855,125.232L633.438,137.596L634.022,133.407L634.605,170.591L635.188,164.154L636.938,174.012L637.521,161.274L638.104,126.22L638.687,113.328L639.27,135.494L641.02,141.206L641.603,149.076L642.186,104.644L642.769,91.754L645.078,115.002L645.661,150.24L646.244,149.131L646.827,165.131L647.41,159.168L649.16,147.849L649.743,140.89L650.326,203.31L650.909,198.887L651.493,240.684L653.242,265.444L653.825,274.538L654.408,285.567L654.992,286.28L655.575,268.94L657.324,250.958L657.908,215.908L658.491,220.342L659.074,234.606L659.657,220.097L661.407,209.483L661.99,241.444L662.573,228.015L663.156,198.772L663.739,179.081L665.489,154.902L666.072,156.085L666.655,157.073L667.238,135.172L667.822,149.232L669.571,147.624L670.154,128.98L670.737,115.828L671.321,118.134L671.904,116.608L673.653,116.429L674.236,122.072L674.82,133.878L675.403,173.782L675.986,154.951L678.319,166.742L678.902,197.134L679.485,176.56L680.068,151.356L681.818,160.865L682.401,182.786L682.984,164.356L683.567,176.616L684.15,197.595L685.9,196.204L686.483,204.178L687.066,182.791L687.649,205.485L688.233,237.252L689.982,229.799L690.565,236.736L691.732,238.025L692.315,233.279L694.064,221.463L694.648,240.347L695.231,240.644L695.814,222.018L696.397,209.55L698.147,227.078L698.73,219.361L699.313,214.755L700.479,225.295L702.229,211.692L702.812,216.182L703.395,189.888L703.978,124.266L704.562,98.109L706.311,85.754L706.894,44.328L707.477,50.343L708.061,79.365L708.644,94.999L710.393,71.022L710.976,70.204L711.56,104.316L712.143,90.794L712.726,67.799L714.476,82.76L715.059,86.113L715.642,74.419L716.225,119.75L716.808,181.447L718.558,246.851L719.141,227.352L719.724,242.683L720.307,203.483L720.89,206.465L722.64,222.494L723.223,194.284L723.806,195.224L724.389,161.309L724.973,154.893L726.722,133.084L727.305,149.635L727.889,129.832L728.472,149.082L729.055,100.211L730.804,101.003L731.388,112.678L731.971,130.934L732.554,119.539L733.137,113.487L735.47,167.068L736.053,177.303L736.636,187.198L737.219,224.485L738.969,212.11L739.552,208.753L740.135,202.495L740.718,184.071L741.302,134.909L743.051,126.34L743.634,113.779L744.217,117.067L744.801,82.435L745.384,98.839L747.133,103.696L747.717,98.987L748.3,124.808L748.883,100.559L749.466,87.531L751.216,81.378L751.799,126.516L752.382,133.658L752.965,152.986L753.548,128.972L755.298,158.676L755.881,165.163L756.464,163.849L757.047,172.026L757.63,128.838L759.38,117.232L759.963,118.811L760.546,87.347L761.13,91.466L761.713,86.941L763.462,125.171L764.045,128.936L764.629,149.379L765.212,151.113L765.795,160.884L767.569,129.945L768.152,139.862L768.735,143.75L769.318,180.364L769.901,180.375L771.651,179.913L772.234,145.147L772.817,94.847L773.401,95.389L773.984,95.252L775.733,91.857L776.316,111.097L776.9,126.659L777.483,140.48L778.066,161.58L779.815,161.172L780.399,157.73L780.982,156.303L781.565,136.921L782.148,117.804L783.898,100.156L784.481,106.502L785.064,100.042L786.23,91.093L787.98,89.885L788.563,105.31L789.146,104.149L789.729,121.683L790.313,121.347L792.062,119.149L792.645,130.704L793.228,127.579L793.812,148.71L794.395,166.685L796.144,168.851L796.728,197.18L797.311,269.728L797.894,268.85L798.477,251.558L800.227,254.143L800.81,238.997L801.976,221.432L802.559,239.504L804.309,250.344L804.892,248.63L806.058,237.662L806.641,213.359L808.391,210.044L808.974,217.154L809.557,234.525L810.724,252.521L812.473,260.838L813.056,253.742L813.64,224.323L814.223,213.625L814.806,200.991L817.139,164.12L817.722,180.577L818.305,169.151L818.888,167.892L820.638,172.451L821.221,176.087L821.804,178.942L822.387,159.173L822.97,174.69L824.72,198.675L825.303,169.804L825.886,147.19L826.469,148.01L827.053,166.755L828.802,161.119L829.385,160.006L829.968,178.236L830.552,156.934L831.135,155.057L833.468,151.698L834.051,158.748L834.634,174.235L835.217,212.967L836.967,228.139L837.55,229.668L838.133,228.21L838.716,245.091L839.299,229.961L841.049,261.886L841.632,279.957L842.215,262.738L842.798,276.063L843.382,263.855L845.131,290.001L845.714,296.884L846.297,296.456L846.881,305.187L847.464,286.174L849.213,267.377L849.796,273.552L850.38,258.694L850.963,262.614L851.546,267.813L853.295,242.662L853.879,252.575L854.462,257.943L855.045,254.382L855.628,279.73L857.353,284.889L857.937,281.033L858.52,264.718L859.103,309.083L859.686,346.807L861.436,352.664L862.019,359.177L862.602,326.744L863.185,337.21L863.768,317.195L865.518,301.98L866.101,299.207L866.684,303.463L867.267,288.835L869.6,305.014L870.183,272.707L870.766,248.218L871.35,206.523L871.933,204.302L873.682,193.193L874.265,175.312L874.849,180.267L875.432,165.611L876.015,122.532L877.765,136.863L878.348,157.402L878.931,148.678L879.514,116.584L880.097,117.665L881.847,74.194L882.43,71.014L883.013,87.145L883.596,75.351L884.179,60.148L885.929,59.497L886.512,55.306L887.095,97.681L887.679,98.419L888.262,102.995L890.594,65.403L891.178,81.28L891.761,73.7L892.344,79.415L894.093,82.951L894.677,64.084L895.26,71.543L895.843,85.655L896.426,60.935L898.176,58.79L898.759,51.71L899.342,63.538L899.925,71.687L900.508,131.403L902.258,115.833L902.841,146.525L903.424,144.483L904.591,153.594L906.34,127.724L906.923,100.427L907.506,129.24L908.09,102.111L908.673,106.99L910.422,107.381L911.006,85.197L911.589,72.814L912.172,61.501L914.505,88.056L915.088,77.153L915.671,65.742L916.254,55.87L916.837,78.593L918.587,73.133L919.17,115.66L919.753,99.434L920.336,85.794L920.92,97.876L922.669,98.692L923.252,73.169L923.835,48.918L924.419,77.95L925.002,77.825L926.751,90.25L927.334,114.35L927.918,151.855L928.501,175.461L929.084,213.496L930.833,180.664L931.417,171.754L932,175.959L932.583,187.638L933.166,182.437L934.916,187.183L935.499,146.742L936.082,117.742L936.665,136.676" stroke="rgb(24,161,205)" id="t2108_ratio" style="fill: none; stroke-width: 2; stroke-linejoin: round; stroke-linecap: round; stroke: rgb(24, 161, 205);"/></g></g></g><g id="lbl-connect-lines-svg"/><g id="x-grid-svg"><g id="x-tick-labels-svg date-axis-svg grid-x-svg datawrapper-gJjxt-17uus4s-svg svelte-nmad35-svg" transform="translate(0, 393)"><text transform="translate(58.98671, 12) translate(-13.47656, 0) translate(13.4765625, 0)" style="text-anchor: middle;"><tspan fill="rgb(116, 116, 116)" style="font-family: Roboto; font-weight: 400; font-stretch: 100%; font-size: 12px;" x="0" dominant-baseline="auto" y="0">Jul</tspan><tspan fill="rgb(116, 116, 116)" style="font-family: Roboto; font-weight: 400; font-stretch: 100%; font-size: 12px;" x="0" dominant-baseline="auto" y="15">2021</tspan></text><text transform="translate(112.63882, 12) translate(-9.26563, 0) translate(9.265625, 0)" style="text-anchor: middle;"><tspan fill="rgb(116, 116, 116)" style="font-family: Roboto; font-weight: 400; font-stretch: 100%; font-size: 12px;" x="0" dominant-baseline="auto" y="0">Oct</tspan></text><text transform="translate(166.31523, 12) translate(-13.60742, 0) translate(13.607421875, 0)" style="text-anchor: middle;"><tspan fill="rgb(116, 116, 116)" style="font-family: Roboto; font-weight: 400; font-stretch: 100%; font-size: 12px;" x="0" dominant-baseline="auto" y="0">Jan</tspan><tspan fill="rgb(116, 116, 116)" style="font-family: Roboto; font-weight: 400; font-stretch: 100%; font-size: 12px;" x="0" dominant-baseline="auto" y="15">2022</tspan></text><text transform="translate(218.77669, 12) translate(-9.31249, 0) translate(9.312492370605469, 0)" style="text-anchor: middle;"><tspan fill="rgb(116, 116, 116)" style="font-family: Roboto; font-weight: 400; font-stretch: 100%; font-size: 12px;" x="0" dominant-baseline="auto" y="0">Apr</tspan></text><text transform="translate(271.84562, 12) translate(-8.07813, 0) translate(8.078125, 0)" style="text-anchor: middle;"><tspan fill="rgb(116, 116, 116)" style="font-family: Roboto; font-weight: 400; font-stretch: 100%; font-size: 12px;" x="0" dominant-baseline="auto" y="0">Jul</tspan></text><text transform="translate(325.49773, 12) translate(-9.26563, 0) translate(9.265625, 0)" style="text-anchor: middle;"><tspan fill="rgb(116, 116, 116)" style="font-family: Roboto; font-weight: 400; font-stretch: 100%; font-size: 12px;" x="0" dominant-baseline="auto" y="0">Oct</tspan></text><text transform="translate(379.17414, 12) translate(-13.47656, 0) translate(13.4765625, 0)" style="text-anchor: middle;"><tspan fill="rgb(116, 116, 116)" style="font-family: Roboto; font-weight: 400; font-stretch: 100%; font-size: 12px;" x="0" dominant-baseline="auto" y="0">Jan</tspan><tspan fill="rgb(116, 116, 116)" style="font-family: Roboto; font-weight: 400; font-stretch: 100%; font-size: 12px;" x="0" dominant-baseline="auto" y="15">2023</tspan></text><text transform="translate(431.6356, 12) translate(-9.3125, 0) translate(9.3125, 0)" style="text-anchor: middle;"><tspan fill="rgb(116, 116, 116)" style="font-family: Roboto; font-weight: 400; font-stretch: 100%; font-size: 12px;" x="0" dominant-baseline="auto" y="0">Apr</tspan></text><text transform="translate(484.70453, 12) translate(-8.07813, 0) translate(8.078125, 0)" style="text-anchor: middle;"><tspan fill="rgb(116, 116, 116)" style="font-family: Roboto; font-weight: 400; font-stretch: 100%; font-size: 12px;" x="0" dominant-baseline="auto" y="0">Jul</tspan></text><text transform="translate(538.35664, 12) translate(-9.26563, 0) translate(9.265625, 0)" style="text-anchor: middle;"><tspan fill="rgb(116, 116, 116)" style="font-family: Roboto; font-weight: 400; font-stretch: 100%; font-size: 12px;" x="0" dominant-baseline="auto" y="0">Oct</tspan></text><text transform="translate(592.03305, 12) translate(-13.60742, 0) translate(13.607421875, 0)" style="text-anchor: middle;"><tspan fill="rgb(116, 116, 116)" style="font-family: Roboto; font-weight: 400; font-stretch: 100%; font-size: 12px;" x="0" dominant-baseline="auto" y="0">Jan</tspan><tspan fill="rgb(116, 116, 116)" style="font-family: Roboto; font-weight: 400; font-stretch: 100%; font-size: 12px;" x="0" dominant-baseline="auto" y="15">2024</tspan></text><text transform="translate(645.07768, 12) translate(-9.3125, 0) translate(9.3125, 0)" style="text-anchor: middle;"><tspan fill="rgb(116, 116, 116)" style="font-family: Roboto; font-weight: 400; font-stretch: 100%; font-size: 12px;" x="0" dominant-baseline="auto" y="0">Apr</tspan></text><text transform="translate(698.14662, 12) translate(-8.07813, 0) translate(8.078125, 0)" style="text-anchor: middle;"><tspan fill="rgb(116, 116, 116)" style="font-family: Roboto; font-weight: 400; font-stretch: 100%; font-size: 12px;" x="0" dominant-baseline="auto" y="0">Jul</tspan></text><text transform="translate(751.79873, 12) translate(-9.26563, 0) translate(9.265625, 0)" style="text-anchor: middle;"><tspan fill="rgb(116, 116, 116)" style="font-family: Roboto; font-weight: 400; font-stretch: 100%; font-size: 12px;" x="0" dominant-baseline="auto" y="0">Oct</tspan></text><text transform="translate(805.47514, 12) translate(-13.60742, 0) translate(13.607421875, 0)" style="text-anchor: middle;"><tspan fill="rgb(116, 116, 116)" style="font-family: Roboto; font-weight: 400; font-stretch: 100%; font-size: 12px;" x="0" dominant-baseline="auto" y="0">Jan</tspan><tspan fill="rgb(116, 116, 116)" style="font-family: Roboto; font-weight: 400; font-stretch: 100%; font-size: 12px;" x="0" dominant-baseline="auto" y="15">2025</tspan></text><text transform="translate(857.9366, 12) translate(-9.3125, 0) translate(9.3125, 0)" style="text-anchor: middle;"><tspan fill="rgb(116, 116, 116)" style="font-family: Roboto; font-weight: 400; font-stretch: 100%; font-size: 12px;" x="0" dominant-baseline="auto" y="0">Apr</tspan></text><text transform="translate(911.00553, 12) translate(-8.07813, 0) translate(8.078125, 0)" style="text-anchor: middle;"><tspan fill="rgb(116, 116, 116)" style="font-family: Roboto; font-weight: 400; font-stretch: 100%; font-size: 12px;" x="0" dominant-baseline="auto" y="0">Jul</tspan></text><g id="highlighted-ticks-svg"/></g></g><g id="y-grid-svg"><g id="y-tick-labels-svg number-axis-svg grid-y-svg datawrapper-gJjxt-1fzbge6-svg" transform="translate(-10, 0)"><text transform="translate(0, 392) translate(-23.63477, 0) translate(23.634765625, 0)" style="text-anchor: end;"><tspan fill="rgb(162, 162, 162)" style="font-family: Roboto; font-weight: 400; font-stretch: 100%; font-size: 12px;" x="0" dominant-baseline="auto" y="0">0.00</tspan></text><text transform="translate(0, 345.26709) translate(-23.63477, 0) translate(23.634765625, 0)" style="text-anchor: end;"><tspan fill="rgb(162, 162, 162)" style="font-family: Roboto; font-weight: 400; font-stretch: 100%; font-size: 12px;" x="0" dominant-baseline="auto" y="0">0.10</tspan></text><text transform="translate(0, 298.53418) translate(-23.63477, 0) translate(23.634765625, 0)" style="text-anchor: end;"><tspan fill="rgb(162, 162, 162)" style="font-family: Roboto; font-weight: 400; font-stretch: 100%; font-size: 12px;" x="0" dominant-baseline="auto" y="0">0.20</tspan></text><text transform="translate(0, 251.80126) translate(-23.63477, 0) translate(23.634765625, 0)" style="text-anchor: end;"><tspan fill="rgb(162, 162, 162)" style="font-family: Roboto; font-weight: 400; font-stretch: 100%; font-size: 12px;" x="0" dominant-baseline="auto" y="0">0.30</tspan></text><text transform="translate(0, 205.06835) translate(-23.63477, 0) translate(23.634765625, 0)" style="text-anchor: end;"><tspan fill="rgb(162, 162, 162)" style="font-family: Roboto; font-weight: 400; font-stretch: 100%; font-size: 12px;" x="0" dominant-baseline="auto" y="0">0.40</tspan></text><text transform="translate(0, 158.33544) translate(-23.63477, 0) translate(23.634765625, 0)" style="text-anchor: end;"><tspan fill="rgb(162, 162, 162)" style="font-family: Roboto; font-weight: 400; font-stretch: 100%; font-size: 12px;" x="0" dominant-baseline="auto" y="0">0.50</tspan></text><text transform="translate(0, 111.60253) translate(-23.63477, 0) translate(23.634765625, 0)" style="text-anchor: end;"><tspan fill="rgb(162, 162, 162)" style="font-family: Roboto; font-weight: 400; font-stretch: 100%; font-size: 12px;" x="0" dominant-baseline="auto" y="0">0.60</tspan></text><text transform="translate(0, 64.86962) translate(-23.63477, 0) translate(23.634765625, 0)" style="text-anchor: end;"><tspan fill="rgb(162, 162, 162)" style="font-family: Roboto; font-weight: 400; font-stretch: 100%; font-size: 12px;" x="0" dominant-baseline="auto" y="0">0.70</tspan></text><text transform="translate(0, 18.13671) translate(-23.63477, 0) translate(23.634765625, 0)" style="text-anchor: end;"><tspan fill="rgb(162, 162, 162)" style="font-family: Roboto; font-weight: 400; font-stretch: 100%; font-size: 12px;" x="0" dominant-baseline="auto" y="0">0.80</tspan></text></g><g id="y-tick-lines-svg grid-y-svg datawrapper-gJjxt-qlpn97-svg"><line x1="0" x2="-5" y1="0" y2="0" transform="translate(0, 14.13671)" style="fill: none; stroke-width: 1; stroke-linejoin: miter; stroke-linecap: butt; stroke: rgb(24, 24, 24);"/><line x1="0" x2="-5" y1="0" y2="0" transform="translate(0, 60.86962)" style="fill: none; stroke-width: 1; stroke-linejoin: miter; stroke-linecap: butt; stroke: rgb(24, 24, 24);"/><line x1="0" x2="-5" y1="0" y2="0" transform="translate(0, 107.60253)" style="fill: none; stroke-width: 1; stroke-linejoin: miter; stroke-linecap: butt; stroke: rgb(24, 24, 24);"/><line x1="0" x2="-5" y1="0" y2="0" transform="translate(0, 154.33544)" style="fill: none; stroke-width: 1; stroke-linejoin: miter; stroke-linecap: butt; stroke: rgb(24, 24, 24);"/><line x1="0" x2="-5" y1="0" y2="0" transform="translate(0, 201.06835)" style="fill: none; stroke-width: 1; stroke-linejoin: miter; stroke-linecap: butt; stroke: rgb(24, 24, 24);"/><line x1="0" x2="-5" y1="0" y2="0" transform="translate(0, 247.80126)" style="fill: none; stroke-width: 1; stroke-linejoin: miter; stroke-linecap: butt; stroke: rgb(24, 24, 24);"/><line x1="0" x2="-5" y1="0" y2="0" transform="translate(0, 294.53418)" style="fill: none; stroke-width: 1; stroke-linejoin: miter; stroke-linecap: butt; stroke: rgb(24, 24, 24);"/><line x1="0" x2="-5" y1="0" y2="0" transform="translate(0, 341.26709)" style="fill: none; stroke-width: 1; stroke-linejoin: miter; stroke-linecap: butt; stroke: rgb(24, 24, 24);"/><line x1="0" x2="-5" y1="0" y2="0" transform="translate(0, 388)" style="fill: none; stroke-width: 1; stroke-linejoin: miter; stroke-linecap: butt; stroke: rgb(24, 24, 24);"/></g><g id="y-base-lines-svg grid-y-svg datawrapper-gJjxt-1ro4gsw-svg"><line x1="946.665234375" x2="0" y1="0" y2="0" transform="translate(0, 388)" style="fill: none; stroke-width: 1; stroke-linejoin: miter; stroke-linecap: square; stroke: rgb(24, 24, 24);"/></g></g><g id="value-labels-svg"/><g id="inner-value-labels-svg"><g id="t2108_ratio-svg"><g id="0.54-svg"><text transform="translate(941.665234375, 136.67633539773047)"><tspan x="0" y="3.6000000000000014" style="font-family: Roboto; font-weight: 400; font-stretch: 100%; font-size: 12px; stroke: rgb(255, 255, 255); stroke-width: 2; stroke-linejoin: miter; stroke-linecap: butt;">0.54</tspan></text><text transform="translate(941.665234375, 136.67633539773047)"><tspan fill="rgb(0, 132, 174)" style="font-family: Roboto; font-weight: 400; font-stretch: 100%; font-size: 12px;" x="0" y="3.6000000000000014">0.54</tspan></text></g></g></g></g></g><line x1="34.625" x2="981.28125" y1="362.796875" y2="362.796875" style="fill: none; stroke-width: 1; stroke: rgba(0, 144, 118, 0.5);"/><g id="svelte-ygoydr-svg" transform="translate(892.625, 402)"><g id="callout-line-svg"><path d="M -53.90742306120423,-6.499999999999999 Q -32.11046642378602,7.180970482187115 -4.905373556801702,1.2218672885814799" stroke="rgb(24,24,24)" style="fill: none; stroke-width: 1; stroke-linejoin: miter; stroke-linecap: butt; stroke: rgb(24, 24, 24);"/><path d="M-4.75,-3.75 L 0,0 L -4.75,3.75" stroke="rgb(24,24,24)" transform="translate(-4.90537, 1.22187) rotate(-8.819088800111151)" style="fill: none; stroke-width: 1; stroke-linejoin: miter; stroke-linecap: butt; stroke: rgb(24, 24, 24);"/></g></g><text transform="translate(822.9453125, 374)" style="text-anchor: middle;"><tspan fill="rgb(133,133,133)" x="0" y="14" style="font-family: Roboto; font-weight: 400; font-stretch: 100%; font-size: 14px;">Trump Tariffs low</tspan></text><g id="tooltip-layer-svg" transform="translate(0, 35)"><g id="group-svg" transform="translate(34.63477, 6)"/></g></g></g></g><g id="container-svg container-footer-svg datawrapper-gJjxt-1la8dcw-svg"><text transform="translate(0, 484)"><tspan fill="rgb(136,136,136)" x="0" y="11" style="font-family: Roboto; font-weight: 400; font-stretch: 100%; font-size: 11px;">Created with</tspan><tspan fill="rgb(136,136,136)" dx="2.734375" style="font-family: Roboto; font-weight: 400; font-stretch: 100%; font-size: 11px;">Datawrapper</tspan></text></g></g></g></g></svg>